<?xml version="1.0" encoding="utf-8"?>
<!-- Generator: Adobe Illustrator 18.1.1, SVG Export Plug-In . SVG Version: 6.00 Build 0)  -->
<!DOCTYPE svg PUBLIC "-//W3C//DTD SVG 1.1//EN" "http://www.w3.org/Graphics/SVG/1.1/DTD/svg11.dtd">
<svg version="1.1" id="Layer_1" xmlns="http://www.w3.org/2000/svg" xmlns:xlink="http://www.w3.org/1999/xlink" x="0px" y="0px"
	 viewBox="0 0 15 15" enable-background="new 0 0 15 15" xml:space="preserve">
<path fill="#D9D9D1" d="M9.6,1.7c-2.2-2.2-5.7-2.2-7.9,0s-2.2,5.7,0,7.9c1.8,1.8,4.6,2.1,6.9,0.8l4.1,4.1c0.5,0.5,1.4,0.5,2,0
	c0.5-0.5,0.5-1.4,0-2l-4.1-4.1C11.7,6.4,11.4,3.6,9.6,1.7z M8.6,8.7c-1.7,1.7-4.3,1.7-5.9,0S1,4.3,2.6,2.7S7,1,8.6,2.7
	S10.2,7,8.6,8.7z"/>
</svg>
