<?xml version="1.0" encoding="utf-8"?>
<!-- Generator: Adobe Illustrator 18.1.1, SVG Export Plug-In . SVG Version: 6.00 Build 0)  -->
<!DOCTYPE svg PUBLIC "-//W3C//DTD SVG 1.1//EN" "http://www.w3.org/Graphics/SVG/1.1/DTD/svg11.dtd">
<svg version="1.1" id="Layer_1" xmlns="http://www.w3.org/2000/svg" xmlns:xlink="http://www.w3.org/1999/xlink" x="0px" y="0px"
	 viewBox="0 0 20 20" enable-background="new 0 0 20 20" xml:space="preserve">
<path d="M10.4,1c-5,0-7.5,3.5-7.5,6.5c0,1.8,0.7,3.4,2.2,3.9c0.2,0.1,0.5,0,0.5-0.3c0-0.2,0.2-0.6,0.2-0.8c0.1-0.3,0-0.4-0.2-0.6
	c-0.4-0.5-0.7-1.1-0.7-2c0-2.6,2-5,5.2-5c2.8,0,4.4,1.7,4.4,4c0,3-1.3,5.5-3.3,5.5c-1.1,0-1.9-0.9-1.7-2c0.3-1.3,0.9-2.7,0.9-3.7
	C10.5,5.7,10,5,9,5C7.9,5,7,6.2,7,7.7c0,1,0.3,1.6,0.3,1.6S6.2,14.1,6,15c-0.4,1.7-0.1,3.7,0,3.9C6,19,6.1,19,6.2,18.9
	c0.1-0.1,1.4-1.8,1.9-3.4c0.1-0.5,0.7-2.8,0.7-2.8c0.4,0.7,1.4,1.3,2.6,1.3c3.4,0,5.7-3,5.7-7.1C17.1,3.9,14.5,1,10.4,1z"/>
</svg>
