<?xml version="1.0" encoding="utf-8"?>
<!-- Generator: Adobe Illustrator 18.1.1, SVG Export Plug-In . SVG Version: 6.00 Build 0)  -->
<!DOCTYPE svg PUBLIC "-//W3C//DTD SVG 1.1//EN" "http://www.w3.org/Graphics/SVG/1.1/DTD/svg11.dtd">
<svg version="1.1" id="Layer_1" xmlns="http://www.w3.org/2000/svg" xmlns:xlink="http://www.w3.org/1999/xlink" x="0px" y="0px"
	 viewBox="0 0 20 20" enable-background="new 0 0 20 20" xml:space="preserve">
<path d="M12.6,15.5c-0.8,0-2-0.5-2-0.8v-3.4V8.6h3.8V7.9V6h-3.8V2H8.5C8.4,3,8.1,3.9,7.7,4.6C7.4,4.9,7.2,5.2,6.9,5.4
	C6.5,5.8,6,6,5.4,6H5.1v2.6h1.8v0.7v5.8c0,2.5,2.2,2.9,3.7,2.9c0.3,0,0.7,0,1,0c2.3,0,2.8-0.2,3.3-0.5v-2.8v0c0,0,0,0,0,0
	C14.2,15.1,13.4,15.5,12.6,15.5z"/>
</svg>
