<?xml version="1.0" encoding="utf-8"?>
<!-- Generator: Adobe Illustrator 18.1.1, SVG Export Plug-In . SVG Version: 6.00 Build 0)  -->
<!DOCTYPE svg PUBLIC "-//W3C//DTD SVG 1.1//EN" "http://www.w3.org/Graphics/SVG/1.1/DTD/svg11.dtd">
<svg version="1.1" id="Layer_1" xmlns="http://www.w3.org/2000/svg" xmlns:xlink="http://www.w3.org/1999/xlink" x="0px" y="0px"
	 viewBox="0 0 22 20" enable-background="new 0 0 22 20" xml:space="preserve">
<g>
	<g>
		<path d="M21.5,5.7c0,0-0.2-1.5-0.9-2.1c-0.8-0.8-1.7-0.9-2.1-0.9c-3-0.2-7.5-0.2-7.5-0.2h0c0,0-4.5,0-7.5,0.2
			c-0.4,0-1.3,0.1-2.1,0.9C0.7,4.3,0.5,5.7,0.5,5.7S0.3,7.5,0.3,9.2v1.6c0,1.7,0.2,3.5,0.2,3.5s0.2,1.5,0.9,2.1
			c0.8,0.8,1.9,0.8,2.4,0.9c1.7,0.2,7.3,0.2,7.3,0.2s4.5,0,7.5-0.2c0.4,0,1.3-0.1,2.1-0.9c0.6-0.6,0.9-2.1,0.9-2.1s0.2-1.7,0.2-3.5
			V9.2C21.7,7.5,21.5,5.7,21.5,5.7z M8.8,12.8l0-6l5.8,3L8.8,12.8z"/>
	</g>
</g>
</svg>
