<?xml version="1.0" encoding="utf-8"?>
<!-- Generator: Adobe Illustrator 18.1.0, SVG Export Plug-In . SVG Version: 6.00 Build 0)  -->
<!DOCTYPE svg PUBLIC "-//W3C//DTD SVG 1.1//EN" "http://www.w3.org/Graphics/SVG/1.1/DTD/svg11.dtd">
<svg version="1.1" id="Layer_1" xmlns="http://www.w3.org/2000/svg" xmlns:xlink="http://www.w3.org/1999/xlink" x="0px" y="0px"
	 viewBox="0 0 20 20" enable-background="new 0 0 20 20" xml:space="preserve">
<g>
	<path fill="#010101" d="M10,10.7C10,10.7,10,10.7,10,10.7c0.2,0,0.3-0.1,0.4-0.1l4.2-4.2H5.4l4.2,4.2C9.7,10.7,9.9,10.7,10,10.7z"
		/>
	<path fill="#010101" d="M11,11.2c-0.2,0.2-0.6,0.4-1,0.4c0,0,0,0,0,0c-0.4,0-0.7-0.1-1-0.4l-0.6-0.6l-3,3.1h9.1l-3-3.1L11,11.2z"/>
	<polygon fill="#010101" points="15.1,13.1 15.1,7 12.1,10 	"/>
	<polygon fill="#010101" points="4.9,6.9 4.9,13.1 7.9,10 	"/>
	<path fill="#010101" d="M10,0C4.5,0,0,4.5,0,10c0,5.5,4.5,10,10,10c5.5,0,10-4.5,10-10C20,4.5,15.5,0,10,0z M16,14.5H4v-9H16V14.5z
		"/>
</g>
</svg>
