<?xml version="1.0" encoding="utf-8"?>
<!-- Generator: Adobe Illustrator 18.1.0, SVG Export Plug-In . SVG Version: 6.00 Build 0)  -->
<!DOCTYPE svg PUBLIC "-//W3C//DTD SVG 1.1//EN" "http://www.w3.org/Graphics/SVG/1.1/DTD/svg11.dtd">
<svg version="1.1" id="Layer_1" xmlns="http://www.w3.org/2000/svg" xmlns:xlink="http://www.w3.org/1999/xlink" x="0px" y="0px"
	 viewBox="0 0 20 20" enable-background="new 0 0 20 20" xml:space="preserve">
<path d="M10,0C4.5,0,0,4.5,0,10c0,5.5,4.5,10,10,10s10-4.5,10-10C20,4.5,15.5,0,10,0z M11.3,12.9c-0.8,0-1.6-0.4-1.8-0.9
	c0,0-0.4,1.7-0.5,2.1c-0.3,1.2-1.3,2.3-1.3,2.4c-0.1,0.1-0.2,0-0.2,0c0-0.1-0.3-1.6,0-2.8c0.1-0.6,1-4.1,1-4.1S8.1,9,8.1,8.3
	c0-1.1,0.6-1.9,1.4-1.9c0.7,0,1,0.5,1,1.1c0,0.7-0.4,1.7-0.7,2.6c-0.2,0.8,0.4,1.4,1.2,1.4c1.4,0,2.4-1.8,2.4-4
	c0-1.6-1.1-2.9-3.1-2.9c-2.3,0-3.7,1.7-3.7,3.6c0,0.7,0.2,1.1,0.5,1.5C7.3,10,7.3,10,7.3,10.2c0,0.1-0.1,0.5-0.2,0.6
	c0,0.2-0.2,0.3-0.4,0.2c-1-0.4-1.5-1.6-1.5-2.9C5.2,6,7,3.5,10.6,3.5c2.9,0,4.7,2.1,4.7,4.3C15.3,10.7,13.7,12.9,11.3,12.9z"/>
</svg>
