<?xml version="1.0" encoding="utf-8"?>
<!-- Generator: Adobe Illustrator 18.1.0, SVG Export Plug-In . SVG Version: 6.00 Build 0)  -->
<!DOCTYPE svg PUBLIC "-//W3C//DTD SVG 1.1//EN" "http://www.w3.org/Graphics/SVG/1.1/DTD/svg11.dtd">
<svg version="1.1" id="Layer_1" xmlns="http://www.w3.org/2000/svg" xmlns:xlink="http://www.w3.org/1999/xlink" x="0px" y="0px"
	 viewBox="0 0 20 20" enable-background="new 0 0 20 20" xml:space="preserve">
<path d="M12.8,2.3c-2.9-2.9-7.5-2.9-10.4,0s-2.9,7.5,0,10.4c2.4,2.4,6.1,2.8,9,1.1l5.4,5.4c0.7,0.7,1.9,0.7,2.6,0
	c0.7-0.7,0.7-1.9,0-2.6l-5.4-5.4C15.6,8.5,15.2,4.8,12.8,2.3z M11.5,11.5c-2.2,2.2-5.7,2.2-7.8,0s-2.2-5.7,0-7.8s5.7-2.2,7.8,0
	S13.6,9.3,11.5,11.5z"/>
</svg>
