<?xml version="1.0" encoding="utf-8"?>
<!-- Generator: Adobe Illustrator 18.1.0, SVG Export Plug-In . SVG Version: 6.00 Build 0)  -->
<!DOCTYPE svg PUBLIC "-//W3C//DTD SVG 1.1//EN" "http://www.w3.org/Graphics/SVG/1.1/DTD/svg11.dtd">
<svg version="1.1" id="Layer_1" xmlns="http://www.w3.org/2000/svg" xmlns:xlink="http://www.w3.org/1999/xlink" x="0px" y="0px"
	 viewBox="0 0 20 20" enable-background="new 0 0 20 20" xml:space="preserve">
<path d="M10,0C4.5,0,0,4.5,0,10c0,5.5,4.5,10,10,10s10-4.5,10-10C20,4.5,15.5,0,10,0z M15.6,10.3c-0.4,1.6-1.5,2.8-2.7,3.5
	c-3,1.7-7.4,1.5-9.6-1.6c1.4,1.1,3.6,1.4,5.2-0.2c-1,0-1.3-0.8-0.5-1.2c-0.8,0-1.3-0.3-1.6-0.7C6.3,9.9,6.3,9.9,6.4,9.7
	c0.2-0.1,0.5-0.2,0.7-0.2C6.4,9.3,5.9,8.8,5.7,8.3C5.7,8.1,5.6,8.1,5.8,8.1C6,8,6.3,8,6.5,8c-0.6-0.4-1-0.9-1.1-1.4
	c-0.1-0.5,0-0.4,0.4-0.2C7.4,7,9,7.7,10,8.7c0.4-1.4,1-2.3,1.6-3c0.5-0.5,0.7-0.6,0.4-0.1c0.1-0.1,0.3-0.2,0.4-0.3
	c0.8-0.4,0.7-0.1,0.2,0.3c1.4-0.5,1.4,0.1-0.1,0.5c1.2,0,2.6,0.8,2.9,2.5c0.1,0.2,0,0.2,0.2,0.3c0.5,0.1,1,0.1,1.5-0.1
	c-0.1,0.3-0.5,0.6-1.2,0.7c-0.3,0.1-0.3,0,0,0.1c0.4,0.1,0.8,0.1,1.3,0.1C16.9,10.1,16.3,10.3,15.6,10.3z"/>
</svg>
